<svg width="175" height="32" viewBox="0 0 175 32" fill="none" xmlns="http://www.w3.org/2000/svg">
<mask id="path-1-outside-1_3129_3500" maskUnits="userSpaceOnUse" x="-0.719727" y="-0.639893" width="176" height="33" fill="black">
<rect fill="white" x="-0.719727" y="-0.639893" width="176" height="33"/>
<path d="M5.48027 14.7601V24.3601H1.00027V1.96011H14.7283V5.80011H5.48027V10.9201H12.8083V14.7601H5.48027ZM21.6743 18.0561V20.8401H26.1863V18.0561H21.6743ZM21.0023 24.5201L17.2903 22.3761V16.8401L21.0023 14.6961H26.1863V12.1041H18.8903V8.36011H26.8583L30.5703 10.5041V24.5201H28.4583L26.1863 23.2081L23.9143 24.5201H21.0023ZM18.6343 5.32011V1.00011H22.9543V5.32011H18.6343ZM26.2823 5.32011V1.00011H30.6023V5.32011H26.2823ZM39.783 24.3601H35.399V1.00011H39.783V9.51211L42.055 8.20011H46.247L49.959 10.3441V24.3601H45.575V11.9441H39.783V24.3601ZM59.158 8.36011V24.3601H54.774V8.36011H59.158ZM54.614 5.38411V1.00011H59.318V5.38411H54.614ZM63.3215 28.7761V26.5361L67.0335 24.3601L63.9615 22.5681V19.6881L66.2335 18.3761L63.9615 17.0641V10.5041L67.6735 8.36011H78.5215V10.4081L75.6095 12.1041L77.5615 13.2561V16.7121L73.8495 18.8561H68.3455V20.9361H74.8095L78.5215 23.0801V28.7761L74.8095 30.9201H67.0335L63.3215 28.7761ZM74.1375 24.3601H67.7055V27.2401H74.1375V24.3601ZM68.3455 11.9441V15.2721H73.1775V11.9441H68.3455ZM87.0643 1.00011V14.7921H87.1283L92.0883 8.36011H97.1123L91.3843 15.4961L98.0723 24.3601H92.9843L88.8243 18.6961L87.0643 20.9041V24.3601H82.6803V1.00011H87.0643ZM113.585 20.6161V24.3601H104.017L100.305 22.2161V10.3441L104.017 8.20011H109.873L113.585 10.3441V17.9921H104.689V20.6161H113.585ZM104.689 11.9441V14.6961H109.201V11.9441H104.689ZM122.783 8.36011V24.3601H118.399V8.36011H122.783ZM118.239 5.38411V1.00011H122.943V5.38411H118.239ZM126.307 12.1041V8.36011H129.251V5.67211L133.635 3.14411V8.36011H137.155V12.1041H133.635V20.6161H137.155V24.3601H132.963L129.251 22.2161V12.1041H126.307ZM154.585 20.6161V24.3601H145.017L141.305 22.2161V10.3441L145.017 8.20011H150.873L154.585 10.3441V17.9921H145.689V20.6161H154.585ZM145.689 11.9441V14.6961H150.201V11.9441H145.689ZM173.639 10.3441V24.3601H169.255V11.9441H163.783V24.3601H159.399V8.20011H163.015L163.783 9.51211L166.055 8.20011H169.927L173.639 10.3441Z"/>
</mask>
<path d="M5.48027 14.7601V13.7601H4.48027V14.7601H5.48027ZM5.48027 24.3601V25.3601H6.48027V24.3601H5.48027ZM1.00027 24.3601H0.000273466V25.3601H1.00027V24.3601ZM1.00027 1.96011V0.960106H0.000273466V1.96011H1.00027ZM14.7283 1.96011H15.7283V0.960106H14.7283V1.96011ZM14.7283 5.80011V6.80011H15.7283V5.80011H14.7283ZM5.48027 5.80011V4.80011H4.48027V5.80011H5.48027ZM5.48027 10.9201H4.48027V11.9201H5.48027V10.9201ZM12.8083 10.9201H13.8083V9.92011H12.8083V10.9201ZM12.8083 14.7601V15.7601H13.8083V14.7601H12.8083ZM5.48027 14.7601H4.48027V24.3601H5.48027H6.48027V14.7601H5.48027ZM5.48027 24.3601V23.3601H1.00027V24.3601V25.3601H5.48027V24.3601ZM1.00027 24.3601H2.00027V1.96011H1.00027H0.000273466V24.3601H1.00027ZM1.00027 1.96011V2.96011H14.7283V1.96011V0.960106H1.00027V1.96011ZM14.7283 1.96011H13.7283V5.80011H14.7283H15.7283V1.96011H14.7283ZM14.7283 5.80011V4.80011H5.48027V5.80011V6.80011H14.7283V5.80011ZM5.48027 5.80011H4.48027V10.9201H5.48027H6.48027V5.80011H5.48027ZM5.48027 10.9201V11.9201H12.8083V10.9201V9.92011H5.48027V10.9201ZM12.8083 10.9201H11.8083V14.7601H12.8083H13.8083V10.9201H12.8083ZM12.8083 14.7601V13.7601H5.48027V14.7601V15.7601H12.8083V14.7601ZM21.6743 18.0561V17.0561H20.6743V18.0561H21.6743ZM21.6743 20.8401H20.6743V21.8401H21.6743V20.8401ZM26.1863 20.8401V21.8401H27.1863V20.8401H26.1863ZM26.1863 18.0561H27.1863V17.0561H26.1863V18.0561ZM21.0023 24.5201L20.5021 25.386L20.7342 25.5201H21.0023V24.5201ZM17.2903 22.3761H16.2903V22.9533L16.7901 23.242L17.2903 22.3761ZM17.2903 16.8401L16.7901 15.9742L16.2903 16.2629V16.8401H17.2903ZM21.0023 14.6961V13.6961H20.7342L20.5021 13.8302L21.0023 14.6961ZM26.1863 14.6961V15.6961H27.1863V14.6961H26.1863ZM26.1863 12.1041H27.1863V11.1041H26.1863V12.1041ZM18.8903 12.1041H17.8903V13.1041H18.8903V12.1041ZM18.8903 8.36011V7.36011H17.8903V8.36011H18.8903ZM26.8583 8.36011L27.3584 7.49417L27.1263 7.36011H26.8583V8.36011ZM30.5703 10.5041H31.5703V9.92687L31.0704 9.63817L30.5703 10.5041ZM30.5703 24.5201V25.5201H31.5703V24.5201H30.5703ZM28.4583 24.5201L27.9582 25.3861L28.1903 25.5201H28.4583V24.5201ZM26.1863 23.2081L26.6863 22.3421L26.1863 22.0533L25.6862 22.3421L26.1863 23.2081ZM23.9143 24.5201V25.5201H24.1823L24.4143 25.3861L23.9143 24.5201ZM18.6343 5.32011H17.6343V6.32011H18.6343V5.32011ZM18.6343 1.00011V0.000106812H17.6343V1.00011H18.6343ZM22.9543 1.00011H23.9543V0.000106812H22.9543V1.00011ZM22.9543 5.32011V6.32011H23.9543V5.32011H22.9543ZM26.2823 5.32011H25.2823V6.32011H26.2823V5.32011ZM26.2823 1.00011V0.000106812H25.2823V1.00011H26.2823ZM30.6023 1.00011H31.6023V0.000106812H30.6023V1.00011ZM30.6023 5.32011V6.32011H31.6023V5.32011H30.6023ZM21.6743 18.0561H20.6743V20.8401H21.6743H22.6743V18.0561H21.6743ZM21.6743 20.8401V21.8401H26.1863V20.8401V19.8401H21.6743V20.8401ZM26.1863 20.8401H27.1863V18.0561H26.1863H25.1863V20.8401H26.1863ZM26.1863 18.0561V17.0561H21.6743V18.0561V19.0561H26.1863V18.0561ZM21.0023 24.5201L21.5024 23.6542L17.7904 21.5102L17.2903 22.3761L16.7901 23.242L20.5021 25.386L21.0023 24.5201ZM17.2903 22.3761H18.2903V16.8401H17.2903H16.2903V22.3761H17.2903ZM17.2903 16.8401L17.7904 17.706L21.5024 15.562L21.0023 14.6961L20.5021 13.8302L16.7901 15.9742L17.2903 16.8401ZM21.0023 14.6961V15.6961H26.1863V14.6961V13.6961H21.0023V14.6961ZM26.1863 14.6961H27.1863V12.1041H26.1863H25.1863V14.6961H26.1863ZM26.1863 12.1041V11.1041H18.8903V12.1041V13.1041H26.1863V12.1041ZM18.8903 12.1041H19.8903V8.36011H18.8903H17.8903V12.1041H18.8903ZM18.8903 8.36011V9.36011H26.8583V8.36011V7.36011H18.8903V8.36011ZM26.8583 8.36011L26.3581 9.22604L30.0701 11.37L30.5703 10.5041L31.0704 9.63817L27.3584 7.49417L26.8583 8.36011ZM30.5703 10.5041H29.5703V24.5201H30.5703H31.5703V10.5041H30.5703ZM30.5703 24.5201V23.5201H28.4583V24.5201V25.5201H30.5703V24.5201ZM28.4583 24.5201L28.9583 23.6541L26.6863 22.3421L26.1863 23.2081L25.6862 24.0741L27.9582 25.3861L28.4583 24.5201ZM26.1863 23.2081L25.6862 22.3421L23.4142 23.6541L23.9143 24.5201L24.4143 25.3861L26.6863 24.0741L26.1863 23.2081ZM23.9143 24.5201V23.5201H21.0023V24.5201V25.5201H23.9143V24.5201ZM18.6343 5.32011H19.6343V1.00011H18.6343H17.6343V5.32011H18.6343ZM18.6343 1.00011V2.00011H22.9543V1.00011V0.000106812H18.6343V1.00011ZM22.9543 1.00011H21.9543V5.32011H22.9543H23.9543V1.00011H22.9543ZM22.9543 5.32011V4.32011H18.6343V5.32011V6.32011H22.9543V5.32011ZM26.2823 5.32011H27.2823V1.00011H26.2823H25.2823V5.32011H26.2823ZM26.2823 1.00011V2.00011H30.6023V1.00011V0.000106812H26.2823V1.00011ZM30.6023 1.00011H29.6023V5.32011H30.6023H31.6023V1.00011H30.6023ZM30.6023 5.32011V4.32011H26.2823V5.32011V6.32011H30.6023V5.32011ZM39.783 24.3601V25.3601H40.783V24.3601H39.783ZM35.399 24.3601H34.399V25.3601H35.399V24.3601ZM35.399 1.00011V0.000106812H34.399V1.00011H35.399ZM39.783 1.00011H40.783V0.000106812H39.783V1.00011ZM39.783 9.51211H38.783V11.2443L40.2831 10.3781L39.783 9.51211ZM42.055 8.20011V7.20011H41.787L41.555 7.33413L42.055 8.20011ZM46.247 8.20011L46.7472 7.33417L46.5151 7.20011H46.247V8.20011ZM49.959 10.3441H50.959V9.76687L50.4592 9.47817L49.959 10.3441ZM49.959 24.3601V25.3601H50.959V24.3601H49.959ZM45.575 24.3601H44.575V25.3601H45.575V24.3601ZM45.575 11.9441H46.575V10.9441H45.575V11.9441ZM39.783 11.9441V10.9441H38.783V11.9441H39.783ZM39.783 24.3601V23.3601H35.399V24.3601V25.3601H39.783V24.3601ZM35.399 24.3601H36.399V1.00011H35.399H34.399V24.3601H35.399ZM35.399 1.00011V2.00011H39.783V1.00011V0.000106812H35.399V1.00011ZM39.783 1.00011H38.783V9.51211H39.783H40.783V1.00011H39.783ZM39.783 9.51211L40.2831 10.3781L42.5551 9.06609L42.055 8.20011L41.555 7.33413L39.283 8.64612L39.783 9.51211ZM42.055 8.20011V9.20011H46.247V8.20011V7.20011H42.055V8.20011ZM46.247 8.20011L45.7469 9.06604L49.4589 11.21L49.959 10.3441L50.4592 9.47817L46.7472 7.33417L46.247 8.20011ZM49.959 10.3441H48.959V24.3601H49.959H50.959V10.3441H49.959ZM49.959 24.3601V23.3601H45.575V24.3601V25.3601H49.959V24.3601ZM45.575 24.3601H46.575V11.9441H45.575H44.575V24.3601H45.575ZM45.575 11.9441V10.9441H39.783V11.9441V12.9441H45.575V11.9441ZM39.783 11.9441H38.783V24.3601H39.783H40.783V11.9441H39.783ZM59.158 8.36011H60.158V7.36011H59.158V8.36011ZM59.158 24.3601V25.3601H60.158V24.3601H59.158ZM54.774 24.3601H53.774V25.3601H54.774V24.3601ZM54.774 8.36011V7.36011H53.774V8.36011H54.774ZM54.614 5.38411H53.614V6.38411H54.614V5.38411ZM54.614 1.00011V0.000106812H53.614V1.00011H54.614ZM59.318 1.00011H60.318V0.000106812H59.318V1.00011ZM59.318 5.38411V6.38411H60.318V5.38411H59.318ZM59.158 8.36011H58.158V24.3601H59.158H60.158V8.36011H59.158ZM59.158 24.3601V23.3601H54.774V24.3601V25.3601H59.158V24.3601ZM54.774 24.3601H55.774V8.36011H54.774H53.774V24.3601H54.774ZM54.774 8.36011V9.36011H59.158V8.36011V7.36011H54.774V8.36011ZM54.614 5.38411H55.614V1.00011H54.614H53.614V5.38411H54.614ZM54.614 1.00011V2.00011H59.318V1.00011V0.000106812H54.614V1.00011ZM59.318 1.00011H58.318V5.38411H59.318H60.318V1.00011H59.318ZM59.318 5.38411V4.38411H54.614V5.38411V6.38411H59.318V5.38411ZM63.3215 28.7761H62.3215V29.3533L62.8214 29.642L63.3215 28.7761ZM63.3215 26.5361L62.8158 25.6734L62.3215 25.9632V26.5361H63.3215ZM67.0335 24.3601L67.5392 25.2228L69.0145 24.358L67.5374 23.4963L67.0335 24.3601ZM63.9615 22.5681H62.9615V23.1425L63.4576 23.4319L63.9615 22.5681ZM63.9615 19.6881L63.4614 18.8221L62.9615 19.1108V19.6881H63.9615ZM66.2335 18.3761L66.7336 19.2421L68.2332 18.3761L66.7336 17.5101L66.2335 18.3761ZM63.9615 17.0641H62.9615V17.6414L63.4614 17.9301L63.9615 17.0641ZM63.9615 10.5041L63.4614 9.63817L62.9615 9.92687V10.5041H63.9615ZM67.6735 8.36011V7.36011H67.4055L67.1734 7.49417L67.6735 8.36011ZM78.5215 8.36011H79.5215V7.36011H78.5215V8.36011ZM78.5215 10.4081L79.0248 11.2722L79.5215 10.9829V10.4081H78.5215ZM75.6095 12.1041L75.1062 11.24L73.6323 12.0984L75.1013 12.9653L75.6095 12.1041ZM77.5615 13.2561H78.5615V12.6851L78.0698 12.3949L77.5615 13.2561ZM77.5615 16.7121L78.0617 17.578L78.5615 17.2893V16.7121H77.5615ZM73.8495 18.8561V19.8561H74.1176L74.3497 19.722L73.8495 18.8561ZM68.3455 18.8561V17.8561H67.3455V18.8561H68.3455ZM68.3455 20.9361H67.3455V21.9361H68.3455V20.9361ZM74.8095 20.9361L75.3097 20.0702L75.0776 19.9361H74.8095V20.9361ZM78.5215 23.0801H79.5215V22.5029L79.0217 22.2142L78.5215 23.0801ZM78.5215 28.7761L79.0217 29.642L79.5215 29.3533V28.7761H78.5215ZM74.8095 30.9201V31.9201H75.0776L75.3097 31.786L74.8095 30.9201ZM67.0335 30.9201L66.5334 31.786L66.7655 31.9201H67.0335V30.9201ZM74.1375 24.3601H75.1375V23.3601H74.1375V24.3601ZM67.7055 24.3601V23.3601H66.7055V24.3601H67.7055ZM67.7055 27.2401H66.7055V28.2401H67.7055V27.2401ZM74.1375 27.2401V28.2401H75.1375V27.2401H74.1375ZM68.3455 11.9441V10.9441H67.3455V11.9441H68.3455ZM68.3455 15.2721H67.3455V16.2721H68.3455V15.2721ZM73.1775 15.2721V16.2721H74.1775V15.2721H73.1775ZM73.1775 11.9441H74.1775V10.9441H73.1775V11.9441ZM63.3215 28.7761H64.3215V26.5361H63.3215H62.3215V28.7761H63.3215ZM63.3215 26.5361L63.8272 27.3988L67.5392 25.2228L67.0335 24.3601L66.5278 23.4974L62.8158 25.6734L63.3215 26.5361ZM67.0335 24.3601L67.5374 23.4963L64.4654 21.7043L63.9615 22.5681L63.4576 23.4319L66.5297 25.2239L67.0335 24.3601ZM63.9615 22.5681H64.9615V19.6881H63.9615H62.9615V22.5681H63.9615ZM63.9615 19.6881L64.4616 20.5541L66.7336 19.2421L66.2335 18.3761L65.7335 17.5101L63.4614 18.8221L63.9615 19.6881ZM66.2335 18.3761L66.7336 17.5101L64.4616 16.1981L63.9615 17.0641L63.4614 17.9301L65.7335 19.2421L66.2335 18.3761ZM63.9615 17.0641H64.9615V10.5041H63.9615H62.9615V17.0641H63.9615ZM63.9615 10.5041L64.4617 11.37L68.1737 9.22604L67.6735 8.36011L67.1734 7.49417L63.4614 9.63817L63.9615 10.5041ZM67.6735 8.36011V9.36011H78.5215V8.36011V7.36011H67.6735V8.36011ZM78.5215 8.36011H77.5215V10.4081H78.5215H79.5215V8.36011H78.5215ZM78.5215 10.4081L78.0182 9.54398L75.1062 11.24L75.6095 12.1041L76.1128 12.9682L79.0248 11.2722L78.5215 10.4081ZM75.6095 12.1041L75.1013 12.9653L77.0533 14.1173L77.5615 13.2561L78.0698 12.3949L76.1178 11.2429L75.6095 12.1041ZM77.5615 13.2561H76.5615V16.7121H77.5615H78.5615V13.2561H77.5615ZM77.5615 16.7121L77.0614 15.8462L73.3494 17.9902L73.8495 18.8561L74.3497 19.722L78.0617 17.578L77.5615 16.7121ZM73.8495 18.8561V17.8561H68.3455V18.8561V19.8561H73.8495V18.8561ZM68.3455 18.8561H67.3455V20.9361H68.3455H69.3455V18.8561H68.3455ZM68.3455 20.9361V21.9361H74.8095V20.9361V19.9361H68.3455V20.9361ZM74.8095 20.9361L74.3094 21.802L78.0214 23.946L78.5215 23.0801L79.0217 22.2142L75.3097 20.0702L74.8095 20.9361ZM78.5215 23.0801H77.5215V28.7761H78.5215H79.5215V23.0801H78.5215ZM78.5215 28.7761L78.0214 27.9102L74.3094 30.0542L74.8095 30.9201L75.3097 31.786L79.0217 29.642L78.5215 28.7761ZM74.8095 30.9201V29.9201H67.0335V30.9201V31.9201H74.8095V30.9201ZM67.0335 30.9201L67.5337 30.0542L63.8217 27.9102L63.3215 28.7761L62.8214 29.642L66.5334 31.786L67.0335 30.9201ZM74.1375 24.3601V23.3601H67.7055V24.3601V25.3601H74.1375V24.3601ZM67.7055 24.3601H66.7055V27.2401H67.7055H68.7055V24.3601H67.7055ZM67.7055 27.2401V28.2401H74.1375V27.2401V26.2401H67.7055V27.2401ZM74.1375 27.2401H75.1375V24.3601H74.1375H73.1375V27.2401H74.1375ZM68.3455 11.9441H67.3455V15.2721H68.3455H69.3455V11.9441H68.3455ZM68.3455 15.2721V16.2721H73.1775V15.2721V14.2721H68.3455V15.2721ZM73.1775 15.2721H74.1775V11.9441H73.1775H72.1775V15.2721H73.1775ZM73.1775 11.9441V10.9441H68.3455V11.9441V12.9441H73.1775V11.9441ZM87.0643 1.00011H88.0643V0.000106812H87.0643V1.00011ZM87.0643 14.7921H86.0643V15.7921H87.0643V14.7921ZM87.1283 14.7921V15.7921H87.6199L87.9202 15.4028L87.1283 14.7921ZM92.0883 8.36011V7.36011H91.5966L91.2964 7.74944L92.0883 8.36011ZM97.1123 8.36011L97.8921 8.98608L99.1973 7.36011H97.1123V8.36011ZM91.3843 15.4961L90.6044 14.8701L90.1172 15.4771L90.586 16.0984L91.3843 15.4961ZM98.0723 24.3601V25.3601H100.079L98.8705 23.7578L98.0723 24.3601ZM92.9843 24.3601L92.1783 24.9521L92.478 25.3601H92.9843V24.3601ZM88.8243 18.6961L89.6302 18.1042L88.8568 17.051L88.0423 18.0728L88.8243 18.6961ZM87.0643 20.9041L86.2823 20.2808L86.0643 20.5543V20.9041H87.0643ZM87.0643 24.3601V25.3601H88.0643V24.3601H87.0643ZM82.6803 24.3601H81.6803V25.3601H82.6803V24.3601ZM82.6803 1.00011V0.000106812H81.6803V1.00011H82.6803ZM87.0643 1.00011H86.0643V14.7921H87.0643H88.0643V1.00011H87.0643ZM87.0643 14.7921V15.7921H87.1283V14.7921V13.7921H87.0643V14.7921ZM87.1283 14.7921L87.9202 15.4028L92.8802 8.97077L92.0883 8.36011L91.2964 7.74944L86.3364 14.1814L87.1283 14.7921ZM92.0883 8.36011V9.36011H97.1123V8.36011V7.36011H92.0883V8.36011ZM97.1123 8.36011L96.3324 7.73413L90.6044 14.8701L91.3843 15.4961L92.1641 16.1221L97.8921 8.98608L97.1123 8.36011ZM91.3843 15.4961L90.586 16.0984L97.274 24.9624L98.0723 24.3601L98.8705 23.7578L92.1825 14.8938L91.3843 15.4961ZM98.0723 24.3601V23.3601H92.9843V24.3601V25.3601H98.0723V24.3601ZM92.9843 24.3601L93.7902 23.7682L89.6302 18.1042L88.8243 18.6961L88.0183 19.2881L92.1783 24.9521L92.9843 24.3601ZM88.8243 18.6961L88.0423 18.0728L86.2823 20.2808L87.0643 20.9041L87.8462 21.5274L89.6062 19.3194L88.8243 18.6961ZM87.0643 20.9041H86.0643V24.3601H87.0643H88.0643V20.9041H87.0643ZM87.0643 24.3601V23.3601H82.6803V24.3601V25.3601H87.0643V24.3601ZM82.6803 24.3601H83.6803V1.00011H82.6803H81.6803V24.3601H82.6803ZM82.6803 1.00011V2.00011H87.0643V1.00011V0.000106812H82.6803V1.00011ZM113.585 20.6161H114.585V19.6161H113.585V20.6161ZM113.585 24.3601V25.3601H114.585V24.3601H113.585ZM104.017 24.3601L103.517 25.226L103.749 25.3601H104.017V24.3601ZM100.305 22.2161H99.3053V22.7933L99.8051 23.082L100.305 22.2161ZM100.305 10.3441L99.8051 9.47817L99.3053 9.76687V10.3441H100.305ZM104.017 8.20011V7.20011H103.749L103.517 7.33417L104.017 8.20011ZM109.873 8.20011L110.373 7.33417L110.141 7.20011H109.873V8.20011ZM113.585 10.3441H114.585V9.76687L114.085 9.47817L113.585 10.3441ZM113.585 17.9921V18.9921H114.585V17.9921H113.585ZM104.689 17.9921V16.9921H103.689V17.9921H104.689ZM104.689 20.6161H103.689V21.6161H104.689V20.6161ZM104.689 11.9441V10.9441H103.689V11.9441H104.689ZM104.689 14.6961H103.689V15.6961H104.689V14.6961ZM109.201 14.6961V15.6961H110.201V14.6961H109.201ZM109.201 11.9441H110.201V10.9441H109.201V11.9441ZM113.585 20.6161H112.585V24.3601H113.585H114.585V20.6161H113.585ZM113.585 24.3601V23.3601H104.017V24.3601V25.3601H113.585V24.3601ZM104.017 24.3601L104.517 23.4942L100.805 21.3502L100.305 22.2161L99.8051 23.082L103.517 25.226L104.017 24.3601ZM100.305 22.2161H101.305V10.3441H100.305H99.3053V22.2161H100.305ZM100.305 10.3441L100.805 11.21L104.517 9.06604L104.017 8.20011L103.517 7.33417L99.8051 9.47817L100.305 10.3441ZM104.017 8.20011V9.20011H109.873V8.20011V7.20011H104.017V8.20011ZM109.873 8.20011L109.373 9.06604L113.085 11.21L113.585 10.3441L114.085 9.47817L110.373 7.33417L109.873 8.20011ZM113.585 10.3441H112.585V17.9921H113.585H114.585V10.3441H113.585ZM113.585 17.9921V16.9921H104.689V17.9921V18.9921H113.585V17.9921ZM104.689 17.9921H103.689V20.6161H104.689H105.689V17.9921H104.689ZM104.689 20.6161V21.6161H113.585V20.6161V19.6161H104.689V20.6161ZM104.689 11.9441H103.689V14.6961H104.689H105.689V11.9441H104.689ZM104.689 14.6961V15.6961H109.201V14.6961V13.6961H104.689V14.6961ZM109.201 14.6961H110.201V11.9441H109.201H108.201V14.6961H109.201ZM109.201 11.9441V10.9441H104.689V11.9441V12.9441H109.201V11.9441ZM122.783 8.36011H123.783V7.36011H122.783V8.36011ZM122.783 24.3601V25.3601H123.783V24.3601H122.783ZM118.399 24.3601H117.399V25.3601H118.399V24.3601ZM118.399 8.36011V7.36011H117.399V8.36011H118.399ZM118.239 5.38411H117.239V6.38411H118.239V5.38411ZM118.239 1.00011V0.000106812H117.239V1.00011H118.239ZM122.943 1.00011H123.943V0.000106812H122.943V1.00011ZM122.943 5.38411V6.38411H123.943V5.38411H122.943ZM122.783 8.36011H121.783V24.3601H122.783H123.783V8.36011H122.783ZM122.783 24.3601V23.3601H118.399V24.3601V25.3601H122.783V24.3601ZM118.399 24.3601H119.399V8.36011H118.399H117.399V24.3601H118.399ZM118.399 8.36011V9.36011H122.783V8.36011V7.36011H118.399V8.36011ZM118.239 5.38411H119.239V1.00011H118.239H117.239V5.38411H118.239ZM118.239 1.00011V2.00011H122.943V1.00011V0.000106812H118.239V1.00011ZM122.943 1.00011H121.943V5.38411H122.943H123.943V1.00011H122.943ZM122.943 5.38411V4.38411H118.239V5.38411V6.38411H122.943V5.38411ZM126.307 12.1041H125.307V13.1041H126.307V12.1041ZM126.307 8.36011V7.36011H125.307V8.36011H126.307ZM129.251 8.36011V9.36011H130.251V8.36011H129.251ZM129.251 5.67211L128.751 4.80581L128.251 5.0944V5.67211H129.251ZM133.635 3.14411H134.635V1.41312L133.135 2.27781L133.635 3.14411ZM133.635 8.36011H132.635V9.36011H133.635V8.36011ZM137.155 8.36011H138.155V7.36011H137.155V8.36011ZM137.155 12.1041V13.1041H138.155V12.1041H137.155ZM133.635 12.1041V11.1041H132.635V12.1041H133.635ZM133.635 20.6161H132.635V21.6161H133.635V20.6161ZM137.155 20.6161H138.155V19.6161H137.155V20.6161ZM137.155 24.3601V25.3601H138.155V24.3601H137.155ZM132.963 24.3601L132.462 25.226L132.694 25.3601H132.963V24.3601ZM129.251 22.2161H128.251V22.7933L128.75 23.082L129.251 22.2161ZM129.251 12.1041H130.251V11.1041H129.251V12.1041ZM126.307 12.1041H127.307V8.36011H126.307H125.307V12.1041H126.307ZM126.307 8.36011V9.36011H129.251V8.36011V7.36011H126.307V8.36011ZM129.251 8.36011H130.251V5.67211H129.251H128.251V8.36011H129.251ZM129.251 5.67211L129.75 6.5384L134.134 4.0104L133.635 3.14411L133.135 2.27781L128.751 4.80581L129.251 5.67211ZM133.635 3.14411H132.635V8.36011H133.635H134.635V3.14411H133.635ZM133.635 8.36011V9.36011H137.155V8.36011V7.36011H133.635V8.36011ZM137.155 8.36011H136.155V12.1041H137.155H138.155V8.36011H137.155ZM137.155 12.1041V11.1041H133.635V12.1041V13.1041H137.155V12.1041ZM133.635 12.1041H132.635V20.6161H133.635H134.635V12.1041H133.635ZM133.635 20.6161V21.6161H137.155V20.6161V19.6161H133.635V20.6161ZM137.155 20.6161H136.155V24.3601H137.155H138.155V20.6161H137.155ZM137.155 24.3601V23.3601H132.963V24.3601V25.3601H137.155V24.3601ZM132.963 24.3601L133.463 23.4942L129.751 21.3502L129.251 22.2161L128.75 23.082L132.462 25.226L132.963 24.3601ZM129.251 22.2161H130.251V12.1041H129.251H128.251V22.2161H129.251ZM129.251 12.1041V11.1041H126.307V12.1041V13.1041H129.251V12.1041ZM154.585 20.6161H155.585V19.6161H154.585V20.6161ZM154.585 24.3601V25.3601H155.585V24.3601H154.585ZM145.017 24.3601L144.517 25.226L144.749 25.3601H145.017V24.3601ZM141.305 22.2161H140.305V22.7933L140.805 23.082L141.305 22.2161ZM141.305 10.3441L140.805 9.47817L140.305 9.76687V10.3441H141.305ZM145.017 8.20011V7.20011H144.749L144.517 7.33417L145.017 8.20011ZM150.873 8.20011L151.373 7.33417L151.141 7.20011H150.873V8.20011ZM154.585 10.3441H155.585V9.76687L155.085 9.47817L154.585 10.3441ZM154.585 17.9921V18.9921H155.585V17.9921H154.585ZM145.689 17.9921V16.9921H144.689V17.9921H145.689ZM145.689 20.6161H144.689V21.6161H145.689V20.6161ZM145.689 11.9441V10.9441H144.689V11.9441H145.689ZM145.689 14.6961H144.689V15.6961H145.689V14.6961ZM150.201 14.6961V15.6961H151.201V14.6961H150.201ZM150.201 11.9441H151.201V10.9441H150.201V11.9441ZM154.585 20.6161H153.585V24.3601H154.585H155.585V20.6161H154.585ZM154.585 24.3601V23.3601H145.017V24.3601V25.3601H154.585V24.3601ZM145.017 24.3601L145.517 23.4942L141.805 21.3502L141.305 22.2161L140.805 23.082L144.517 25.226L145.017 24.3601ZM141.305 22.2161H142.305V10.3441H141.305H140.305V22.2161H141.305ZM141.305 10.3441L141.805 11.21L145.517 9.06604L145.017 8.20011L144.517 7.33417L140.805 9.47817L141.305 10.3441ZM145.017 8.20011V9.20011H150.873V8.20011V7.20011H145.017V8.20011ZM150.873 8.20011L150.373 9.06604L154.085 11.21L154.585 10.3441L155.085 9.47817L151.373 7.33417L150.873 8.20011ZM154.585 10.3441H153.585V17.9921H154.585H155.585V10.3441H154.585ZM154.585 17.9921V16.9921H145.689V17.9921V18.9921H154.585V17.9921ZM145.689 17.9921H144.689V20.6161H145.689H146.689V17.9921H145.689ZM145.689 20.6161V21.6161H154.585V20.6161V19.6161H145.689V20.6161ZM145.689 11.9441H144.689V14.6961H145.689H146.689V11.9441H145.689ZM145.689 14.6961V15.6961H150.201V14.6961V13.6961H145.689V14.6961ZM150.201 14.6961H151.201V11.9441H150.201H149.201V14.6961H150.201ZM150.201 11.9441V10.9441H145.689V11.9441V12.9441H150.201V11.9441ZM173.639 10.3441H174.639V9.76687L174.139 9.47817L173.639 10.3441ZM173.639 24.3601V25.3601H174.639V24.3601H173.639ZM169.255 24.3601H168.255V25.3601H169.255V24.3601ZM169.255 11.9441H170.255V10.9441H169.255V11.9441ZM163.783 11.9441V10.9441H162.783V11.9441H163.783ZM163.783 24.3601V25.3601H164.783V24.3601H163.783ZM159.399 24.3601H158.399V25.3601H159.399V24.3601ZM159.399 8.20011V7.20011H158.399V8.20011H159.399ZM163.015 8.20011L163.878 7.69493L163.588 7.20011H163.015V8.20011ZM163.783 9.51211L162.92 10.0173L163.422 10.8752L164.283 10.3781L163.783 9.51211ZM166.055 8.20011V7.20011H165.787L165.555 7.33413L166.055 8.20011ZM169.927 8.20011L170.427 7.33417L170.195 7.20011H169.927V8.20011ZM173.639 10.3441H172.639V24.3601H173.639H174.639V10.3441H173.639ZM173.639 24.3601V23.3601H169.255V24.3601V25.3601H173.639V24.3601ZM169.255 24.3601H170.255V11.9441H169.255H168.255V24.3601H169.255ZM169.255 11.9441V10.9441H163.783V11.9441V12.9441H169.255V11.9441ZM163.783 11.9441H162.783V24.3601H163.783H164.783V11.9441H163.783ZM163.783 24.3601V23.3601H159.399V24.3601V25.3601H163.783V24.3601ZM159.399 24.3601H160.399V8.20011H159.399H158.399V24.3601H159.399ZM159.399 8.20011V9.20011H163.015V8.20011V7.20011H159.399V8.20011ZM163.015 8.20011L162.152 8.70529L162.92 10.0173L163.783 9.51211L164.646 9.00693L163.878 7.69493L163.015 8.20011ZM163.783 9.51211L164.283 10.3781L166.555 9.06609L166.055 8.20011L165.555 7.33413L163.283 8.64612L163.783 9.51211ZM166.055 8.20011V9.20011H169.927V8.20011V7.20011H166.055V8.20011ZM169.927 8.20011L169.427 9.06604L173.139 11.21L173.639 10.3441L174.139 9.47817L170.427 7.33417L169.927 8.20011Z" fill="#B5E93B" mask="url(#path-1-outside-1_3129_3500)"/>
</svg>
