<svg width="57" height="288" viewBox="0 0 57 288" fill="none" xmlns="http://www.w3.org/2000/svg">
<mask id="path-1-outside-1_3113_1889" maskUnits="userSpaceOnUse" x="-0.580078" y="-0.645996" width="58" height="289" fill="black">
<rect fill="white" x="-0.580078" y="-0.645996" width="58" height="289"/>
<path d="M25.4099 279.094H42.4199V284.494H4.61992L4.61992 262.408H9.47992V279.094H20.5499V265.648H25.4099V279.094ZM31.3499 252.294H37.9919V241.44H31.3499V252.294ZM42.6899 251.268L39.0719 257.532H30.2699L26.6519 251.268V241.44H20.1179V254.832H15.4199V242.466L19.0379 236.202H42.6899V237.606L40.4759 241.44L42.6899 245.274V251.268ZM10.2899 254.832H4.61992V249.162H10.2899V254.832ZM10.2899 243.006H4.61992V237.336H10.2899V243.006ZM42.4199 222.316V227.554H2.99992V222.316H17.3639L15.1499 218.482V210.328L18.7679 204.064H42.4199V209.302H19.8479V222.316H42.4199ZM15.4199 190.2H42.4199V195.438H15.4199V190.2ZM8.77792 195.708H2.99992L2.99992 189.93H8.77792V195.708ZM42.4199 176.331L39.3959 181.569H34.5359L32.3219 177.735L30.1079 181.569H19.0379L15.4199 175.305V158.079H17.2559L20.1179 162.993L22.0619 159.699H29.5139L33.1319 165.963V176.331H37.7219V164.343L41.3399 158.079H49.8719L53.4899 164.343V176.385L49.8719 182.649H46.5239L43.4999 177.411H48.8999V163.317H42.4199V176.331ZM20.0099 176.331H28.5419V164.937H20.0099V176.331ZM2.99992 145.271H28.8659V145.163L15.4199 134.039V127.775L27.6239 138.197L42.4199 126.155V132.581L31.3499 141.329L35.9939 145.271H42.4199V150.509H2.99992V145.271ZM37.7219 100.491H42.4199V115.557L38.8019 121.821H18.7679L15.1499 115.557V106.755L18.7679 100.491H30.7559V116.583H37.7219V100.491ZM19.8479 116.583H26.0579V105.729H19.8479V116.583ZM15.4199 86.63H42.4199V91.868H15.4199V86.63ZM8.77792 92.138H2.99992V86.36H8.77792L8.77792 92.138ZM20.1179 80.1588H15.4199V75.1908H10.8839L7.85992 69.9528H15.4199V63.4728H20.1179V69.9528H37.7219V63.4728H42.4199V68.9268L38.8019 75.1908H20.1179V80.1588ZM37.7219 34.5731H42.4199V49.6391L38.8019 55.9031H18.7679L15.1499 49.6391V40.8371L18.7679 34.5731H30.7559V50.6651H37.7219V34.5731ZM19.8479 50.6651H26.0579V39.8111H19.8479V50.6651ZM18.7679 3.00002H42.4199L42.4199 8.23802H19.8479V20.712H42.4199V25.95H15.1499V22.008L17.3639 20.712L15.1499 16.878V9.26402L18.7679 3.00002Z"/>
</mask>
<path d="M25.4099 279.094H22.4099V282.094H25.4099V279.094ZM42.4199 279.094H45.4199V276.094H42.4199V279.094ZM42.4199 284.494V287.494H45.4199V284.494H42.4199ZM4.61992 284.494H1.61992V287.494H4.61992V284.494ZM4.61992 262.408V259.408H1.61992V262.408H4.61992ZM9.47992 262.408H12.4799L12.4799 259.408H9.47992L9.47992 262.408ZM9.47992 279.094H6.47992V282.094H9.47992V279.094ZM20.5499 279.094V282.094H23.5499V279.094H20.5499ZM20.5499 265.648V262.648H17.5499V265.648H20.5499ZM25.4099 265.648H28.4099V262.648H25.4099V265.648ZM25.4099 279.094V282.094H42.4199V279.094V276.094H25.4099V279.094ZM42.4199 279.094H39.4199V284.494H42.4199H45.4199V279.094H42.4199ZM42.4199 284.494V281.494H4.61992V284.494V287.494H42.4199V284.494ZM4.61992 284.494H7.61992V262.408H4.61992H1.61992L1.61992 284.494H4.61992ZM4.61992 262.408V265.408H9.47992V262.408L9.47992 259.408H4.61992V262.408ZM9.47992 262.408H6.47992L6.47992 279.094H9.47992H12.4799V262.408H9.47992ZM9.47992 279.094V282.094H20.5499V279.094V276.094H9.47992V279.094ZM20.5499 279.094H23.5499V265.648H20.5499H17.5499V279.094H20.5499ZM20.5499 265.648V268.648H25.4099V265.648V262.648H20.5499V265.648ZM25.4099 265.648H22.4099V279.094H25.4099H28.4099V265.648H25.4099ZM31.3499 252.294H28.3499V255.294H31.3499V252.294ZM37.9919 252.294V255.294H40.9919V252.294H37.9919ZM37.9919 241.44H40.9919V238.44H37.9919V241.44ZM31.3499 241.44V238.44H28.3499V241.44H31.3499ZM42.6899 251.268L45.2877 252.768L45.6899 252.072V251.268H42.6899ZM39.0719 257.532V260.532H40.8036L41.6697 259.032L39.0719 257.532ZM30.2699 257.532L27.6721 259.032L28.5382 260.532H30.2699V257.532ZM26.6519 251.268H23.6519V252.072L24.0541 252.768L26.6519 251.268ZM26.6519 241.44H29.6519V238.44H26.6519V241.44ZM20.1179 241.44V238.44H17.1179V241.44H20.1179ZM20.1179 254.832V257.832H23.1179V254.832H20.1179ZM15.4199 254.832H12.4199V257.832H15.4199V254.832ZM15.4199 242.466L12.8221 240.966L12.4199 241.662V242.466H15.4199ZM19.0379 236.202V233.202H17.3062L16.4401 234.702L19.0379 236.202ZM42.6899 236.202H45.6899V233.202H42.6899V236.202ZM42.6899 237.606L45.2879 239.106L45.6899 238.41V237.606H42.6899ZM40.4759 241.44L37.878 239.94L37.0117 241.44L37.878 242.94L40.4759 241.44ZM42.6899 245.274H45.6899V244.47L45.2879 243.774L42.6899 245.274ZM10.2899 254.832V257.832H13.2899V254.832H10.2899ZM4.61992 254.832H1.61992V257.832H4.61992V254.832ZM4.61992 249.162L4.61992 246.162H1.61992L1.61992 249.162H4.61992ZM10.2899 249.162H13.2899V246.162H10.2899V249.162ZM10.2899 243.006V246.006H13.2899V243.006H10.2899ZM4.61992 243.006H1.61992V246.006H4.61992V243.006ZM4.61992 237.336V234.336H1.61992V237.336H4.61992ZM10.2899 237.336H13.2899V234.336H10.2899V237.336ZM31.3499 252.294V255.294H37.9919V252.294V249.294H31.3499V252.294ZM37.9919 252.294H40.9919V241.44H37.9919H34.9919V252.294H37.9919ZM37.9919 241.44V238.44H31.3499V241.44V244.44H37.9919V241.44ZM31.3499 241.44H28.3499V252.294H31.3499H34.3499V241.44H31.3499ZM42.6899 251.268L40.0921 249.768L36.4741 256.032L39.0719 257.532L41.6697 259.032L45.2877 252.768L42.6899 251.268ZM39.0719 257.532V254.532H30.2699V257.532V260.532H39.0719V257.532ZM30.2699 257.532L32.8677 256.032L29.2497 249.768L26.6519 251.268L24.0541 252.768L27.6721 259.032L30.2699 257.532ZM26.6519 251.268H29.6519V241.44H26.6519H23.6519V251.268H26.6519ZM26.6519 241.44V238.44H20.1179V241.44V244.44H26.6519V241.44ZM20.1179 241.44H17.1179V254.832H20.1179H23.1179V241.44H20.1179ZM20.1179 254.832V251.832H15.4199V254.832V257.832H20.1179V254.832ZM15.4199 254.832H18.4199V242.466H15.4199H12.4199V254.832H15.4199ZM15.4199 242.466L18.0177 243.966L21.6357 237.702L19.0379 236.202L16.4401 234.702L12.8221 240.966L15.4199 242.466ZM19.0379 236.202V239.202H42.6899V236.202V233.202H19.0379V236.202ZM42.6899 236.202H39.6899V237.606H42.6899H45.6899V236.202H42.6899ZM42.6899 237.606L40.092 236.106L37.878 239.94L40.4759 241.44L43.0739 242.94L45.2879 239.106L42.6899 237.606ZM40.4759 241.44L37.878 242.94L40.092 246.774L42.6899 245.274L45.2879 243.774L43.0739 239.94L40.4759 241.44ZM42.6899 245.274H39.6899V251.268H42.6899H45.6899V245.274H42.6899ZM10.2899 254.832V251.832H4.61992V254.832V257.832H10.2899V254.832ZM4.61992 254.832H7.61992V249.162H4.61992H1.61992V254.832H4.61992ZM4.61992 249.162V252.162H10.2899V249.162V246.162H4.61992L4.61992 249.162ZM10.2899 249.162H7.28992V254.832H10.2899H13.2899V249.162H10.2899ZM10.2899 243.006V240.006H4.61992V243.006V246.006H10.2899V243.006ZM4.61992 243.006H7.61992V237.336H4.61992H1.61992V243.006H4.61992ZM4.61992 237.336V240.336H10.2899V237.336V234.336H4.61992V237.336ZM10.2899 237.336H7.28992V243.006H10.2899H13.2899V237.336H10.2899ZM42.4199 222.316H45.4199V219.316H42.4199V222.316ZM42.4199 227.554V230.554H45.4199V227.554H42.4199ZM2.99992 227.554H-8.01086e-05V230.554H2.99992V227.554ZM2.99992 222.316V219.316H-8.01086e-05V222.316H2.99992ZM17.3639 222.316V225.316H22.5606L19.9619 220.815L17.3639 222.316ZM15.1499 218.482H12.1499V219.286L12.552 219.982L15.1499 218.482ZM15.1499 210.328L12.5521 208.827L12.1499 209.523V210.328H15.1499ZM18.7679 204.064V201.064H17.0362L16.1701 202.563L18.7679 204.064ZM42.4199 204.064H45.4199V201.064H42.4199V204.064ZM42.4199 209.302V212.302H45.4199V209.302H42.4199ZM19.8479 209.302V206.302H16.8479V209.302H19.8479ZM19.8479 222.316H16.8479V225.316H19.8479V222.316ZM42.4199 222.316H39.4199V227.554H42.4199H45.4199V222.316H42.4199ZM42.4199 227.554V224.554H2.99992V227.554V230.554H42.4199V227.554ZM2.99992 227.554H5.99992V222.316H2.99992H-8.01086e-05V227.554H2.99992ZM2.99992 222.316V225.316H17.3639V222.316V219.316H2.99992V222.316ZM17.3639 222.316L19.9619 220.815L17.7479 216.981L15.1499 218.482L12.552 219.982L14.766 223.816L17.3639 222.316ZM15.1499 218.482H18.1499V210.328H15.1499H12.1499V218.482H15.1499ZM15.1499 210.328L17.7477 211.828L21.3657 205.564L18.7679 204.064L16.1701 202.563L12.5521 208.827L15.1499 210.328ZM18.7679 204.064L18.7679 207.064H42.4199V204.064V201.064H18.7679V204.064ZM42.4199 204.064H39.4199V209.302H42.4199H45.4199V204.064H42.4199ZM42.4199 209.302V206.302H19.8479V209.302V212.302H42.4199V209.302ZM19.8479 209.302H16.8479V222.316H19.8479H22.8479V209.302H19.8479ZM19.8479 222.316V225.316H42.4199V222.316V219.316H19.8479V222.316ZM15.4199 190.2V187.2H12.4199V190.2H15.4199ZM42.4199 190.2H45.4199V187.2H42.4199V190.2ZM42.4199 195.438V198.438H45.4199V195.438H42.4199ZM15.4199 195.438H12.4199V198.438H15.4199V195.438ZM8.77792 195.708V198.708H11.7779V195.708H8.77792ZM2.99992 195.708H-8.01086e-05V198.708H2.99992V195.708ZM2.99992 189.93V186.93H-8.01086e-05V189.93H2.99992ZM8.77792 189.93H11.7779V186.93H8.77792V189.93ZM15.4199 190.2V193.2H42.4199V190.2V187.2H15.4199V190.2ZM42.4199 190.2H39.4199V195.438H42.4199H45.4199V190.2H42.4199ZM42.4199 195.438V192.438H15.4199V195.438V198.438H42.4199V195.438ZM15.4199 195.438H18.4199V190.2H15.4199H12.4199V195.438H15.4199ZM8.77792 195.708V192.708H2.99992V195.708V198.708H8.77792V195.708ZM2.99992 195.708H5.99992L5.99992 189.93H2.99992H-8.01086e-05L-8.01086e-05 195.708H2.99992ZM2.99992 189.93L2.99992 192.93H8.77792V189.93V186.93H2.99992V189.93ZM8.77792 189.93H5.77792L5.77792 195.708H8.77792H11.7779V189.93H8.77792ZM42.4199 176.331L45.018 177.831L45.4199 177.135V176.331H42.4199ZM39.3959 181.569V184.569H41.128L41.994 183.069L39.3959 181.569ZM34.5359 181.569L31.938 183.069L32.804 184.569H34.5359V181.569ZM32.3219 177.735L34.9199 176.235L32.3219 171.736L29.724 176.235L32.3219 177.735ZM30.1079 181.569V184.569H31.8398L32.7059 183.069L30.1079 181.569ZM19.0379 181.569L16.4401 183.07L17.3062 184.569H19.0379V181.569ZM15.4199 175.305H12.4199V176.109L12.8221 176.806L15.4199 175.305ZM15.4199 158.079V155.079H12.4199V158.079H15.4199ZM17.2559 158.079L19.8483 156.569L18.9804 155.079H17.2559V158.079ZM20.1179 162.993L17.5256 164.503L20.1008 168.925L22.7015 164.518L20.1179 162.993ZM22.0619 159.699V156.699H20.3489L19.4783 158.174L22.0619 159.699ZM29.5139 159.699L32.1117 158.199L31.2456 156.699H29.5139V159.699ZM33.1319 165.963H36.1319V165.159L35.7297 164.463L33.1319 165.963ZM33.1319 176.331H30.1319V179.331H33.1319V176.331ZM37.7219 176.331V179.331H40.7219V176.331H37.7219ZM37.7219 164.343L35.1241 162.843L34.7219 163.539V164.343H37.7219ZM41.3399 158.079V155.079H39.6082L38.7421 156.579L41.3399 158.079ZM49.8719 158.079L52.4697 156.579L51.6036 155.079H49.8719V158.079ZM53.4899 164.343H56.4899V163.539L56.0877 162.843L53.4899 164.343ZM53.4899 176.385L56.0877 177.886L56.4899 177.189L56.4899 176.385H53.4899ZM49.8719 182.649V185.649H51.6036L52.4697 184.15L49.8719 182.649ZM46.5239 182.649L43.9258 184.149L44.7918 185.649H46.5239V182.649ZM43.4999 177.411V174.411H38.3039L40.9018 178.911L43.4999 177.411ZM48.8999 177.411V180.411H51.8999V177.411H48.8999ZM48.8999 163.317H51.8999V160.317H48.8999V163.317ZM42.4199 163.317V160.317H39.4199V163.317H42.4199ZM20.0099 176.331H17.0099V179.331H20.0099V176.331ZM28.5419 176.331V179.331H31.5419V176.331H28.5419ZM28.5419 164.937H31.5419V161.937H28.5419V164.937ZM20.0099 164.937V161.937H17.0099V164.937H20.0099ZM42.4199 176.331L39.8218 174.831L36.7978 180.069L39.3959 181.569L41.994 183.069L45.018 177.831L42.4199 176.331ZM39.3959 181.569V178.569H34.5359V181.569V184.569H39.3959V181.569ZM34.5359 181.569L37.1339 180.069L34.9199 176.235L32.3219 177.735L29.724 179.235L31.938 183.069L34.5359 181.569ZM32.3219 177.735L29.724 176.235L27.51 180.069L30.1079 181.569L32.7059 183.069L34.9199 179.235L32.3219 177.735ZM30.1079 181.569V178.569H19.0379V181.569V184.569H30.1079V181.569ZM19.0379 181.569L21.6357 180.069L18.0177 173.805L15.4199 175.305L12.8221 176.806L16.4401 183.07L19.0379 181.569ZM15.4199 175.305H18.4199V158.079H15.4199H12.4199V175.305H15.4199ZM15.4199 158.079V161.079H17.2559V158.079V155.079H15.4199V158.079ZM17.2559 158.079L14.6636 159.589L17.5256 164.503L20.1179 162.993L22.7103 161.483L19.8483 156.569L17.2559 158.079ZM20.1179 162.993L22.7015 164.518L24.6455 161.224L22.0619 159.699L19.4783 158.174L17.5343 161.468L20.1179 162.993ZM22.0619 159.699V162.699H29.5139V159.699V156.699H22.0619V159.699ZM29.5139 159.699L26.9161 161.2L30.5341 167.464L33.1319 165.963L35.7297 164.463L32.1117 158.199L29.5139 159.699ZM33.1319 165.963H30.1319V176.331H33.1319H36.1319V165.963H33.1319ZM33.1319 176.331V179.331H37.7219V176.331V173.331H33.1319V176.331ZM37.7219 176.331H40.7219V164.343H37.7219H34.7219V176.331H37.7219ZM37.7219 164.343L40.3197 165.844L43.9377 159.58L41.3399 158.079L38.7421 156.579L35.1241 162.843L37.7219 164.343ZM41.3399 158.079V161.079H49.8719V158.079V155.079H41.3399V158.079ZM49.8719 158.079L47.2741 159.58L50.8921 165.844L53.4899 164.343L56.0877 162.843L52.4697 156.579L49.8719 158.079ZM53.4899 164.343H50.4899V176.385H53.4899H56.4899V164.343H53.4899ZM53.4899 176.385L50.8921 174.885L47.2741 181.149L49.8719 182.649L52.4697 184.15L56.0877 177.886L53.4899 176.385ZM49.8719 182.649V179.649H46.5239V182.649V185.649H49.8719V182.649ZM46.5239 182.649L49.122 181.149L46.098 175.911L43.4999 177.411L40.9018 178.911L43.9258 184.149L46.5239 182.649ZM43.4999 177.411V180.411H48.8999V177.411V174.411H43.4999V177.411ZM48.8999 177.411H51.8999V163.317H48.8999H45.8999V177.411H48.8999ZM48.8999 163.317V160.317H42.4199V163.317V166.317H48.8999V163.317ZM42.4199 163.317H39.4199V176.331H42.4199H45.4199V163.317H42.4199ZM20.0099 176.331V179.331H28.5419V176.331V173.331H20.0099V176.331ZM28.5419 176.331H31.5419V164.937H28.5419H25.5419V176.331H28.5419ZM28.5419 164.937V161.937H20.0099V164.937V167.937H28.5419V164.937ZM20.0099 164.937H17.0099V176.331H20.0099H23.0099V164.937H20.0099ZM2.99992 145.271V142.271H-8.01086e-05V145.271H2.99992ZM28.8659 145.271V148.271H31.8659V145.271H28.8659ZM28.8659 145.163H31.8659V143.751L30.7782 142.851L28.8659 145.163ZM15.4199 134.039H12.4199V135.45L13.5076 136.35L15.4199 134.039ZM15.4199 127.775L17.3681 125.493L12.4199 121.268V127.775H15.4199ZM27.6239 138.197L25.6757 140.478L27.5777 142.102L29.5176 140.523L27.6239 138.197ZM42.4199 126.155H45.4199L45.4199 119.845L40.5262 123.828L42.4199 126.155ZM42.4199 132.581L44.28 134.934L45.4199 134.034V132.581H42.4199ZM31.3499 141.329L29.4899 138.975L26.6163 141.246L29.4085 143.616L31.3499 141.329ZM35.9939 145.271L34.0525 147.558L34.8923 148.271H35.9939V145.271ZM42.4199 145.271H45.4199V142.271H42.4199V145.271ZM42.4199 150.509V153.509H45.4199V150.509H42.4199ZM2.99992 150.509H-8.01086e-05V153.509H2.99992V150.509ZM2.99992 145.271V148.271H28.8659V145.271V142.271H2.99992V145.271ZM28.8659 145.271H31.8659V145.163H28.8659H25.8659V145.271H28.8659ZM28.8659 145.163L30.7782 142.851L17.3322 131.727L15.4199 134.039L13.5076 136.35L26.9536 147.474L28.8659 145.163ZM15.4199 134.039H18.4199V127.775H15.4199H12.4199V134.039H15.4199ZM15.4199 127.775L13.4717 130.056L25.6757 140.478L27.6239 138.197L29.5721 135.915L17.3681 125.493L15.4199 127.775ZM27.6239 138.197L29.5176 140.523L44.3136 128.481L42.4199 126.155L40.5262 123.828L25.7302 135.87L27.6239 138.197ZM42.4199 126.155H39.4199V132.581H42.4199H45.4199V126.155H42.4199ZM42.4199 132.581L40.5599 130.227L29.4899 138.975L31.3499 141.329L33.21 143.682L44.28 134.934L42.4199 132.581ZM31.3499 141.329L29.4085 143.616L34.0525 147.558L35.9939 145.271L37.9353 142.983L33.2913 139.041L31.3499 141.329ZM35.9939 145.271V148.271H42.4199V145.271V142.271H35.9939V145.271ZM42.4199 145.271H39.4199V150.509H42.4199H45.4199V145.271H42.4199ZM42.4199 150.509V147.509H2.99992V150.509V153.509H42.4199V150.509ZM2.99992 150.509H5.99992V145.271H2.99992H-8.01086e-05V150.509H2.99992ZM37.7219 100.491V97.4911H34.7219V100.491H37.7219ZM42.4199 100.491H45.4199V97.4911H42.4199V100.491ZM42.4199 115.557L45.0177 117.058L45.4199 116.361V115.557H42.4199ZM38.8019 121.821V124.821H40.5336L41.3997 123.322L38.8019 121.821ZM18.7679 121.821L16.1701 123.322L17.0362 124.821H18.7679V121.821ZM15.1499 115.557H12.1499V116.361L12.5521 117.058L15.1499 115.557ZM15.1499 106.755L12.5521 105.255L12.1499 105.951V106.755H15.1499ZM18.7679 100.491V97.4911H17.0362L16.1701 98.9906L18.7679 100.491ZM30.7559 100.491H33.7559V97.4911H30.7559V100.491ZM30.7559 116.583H27.7559V119.583H30.7559V116.583ZM37.7219 116.583V119.583H40.7219V116.583H37.7219ZM19.8479 116.583H16.8479V119.583H19.8479V116.583ZM26.0579 116.583V119.583H29.0579V116.583H26.0579ZM26.0579 105.729H29.0579V102.729H26.0579V105.729ZM19.8479 105.729V102.729H16.8479V105.729H19.8479ZM37.7219 100.491V103.491H42.4199V100.491V97.4911H37.7219V100.491ZM42.4199 100.491H39.4199V115.557H42.4199H45.4199V100.491H42.4199ZM42.4199 115.557L39.8221 114.057L36.2041 120.321L38.8019 121.821L41.3997 123.322L45.0177 117.058L42.4199 115.557ZM38.8019 121.821L38.8019 118.821H18.7679V121.821V124.821H38.8019V121.821ZM18.7679 121.821L21.3657 120.321L17.7477 114.057L15.1499 115.557L12.5521 117.058L16.1701 123.322L18.7679 121.821ZM15.1499 115.557H18.1499V106.755H15.1499H12.1499V115.557H15.1499ZM15.1499 106.755L17.7477 108.256L21.3657 101.992L18.7679 100.491L16.1701 98.9906L12.5521 105.255L15.1499 106.755ZM18.7679 100.491V103.491H30.7559V100.491V97.4911H18.7679V100.491ZM30.7559 100.491H27.7559V116.583H30.7559H33.7559V100.491H30.7559ZM30.7559 116.583V119.583H37.7219V116.583V113.583H30.7559V116.583ZM37.7219 116.583H40.7219V100.491H37.7219H34.7219V116.583H37.7219ZM19.8479 116.583V119.583H26.0579V116.583V113.583H19.8479V116.583ZM26.0579 116.583H29.0579V105.729H26.0579H23.0579V116.583H26.0579ZM26.0579 105.729V102.729H19.8479V105.729V108.729H26.0579V105.729ZM19.8479 105.729H16.8479V116.583H19.8479H22.8479V105.729H19.8479ZM15.4199 86.63V83.63H12.4199V86.63H15.4199ZM42.4199 86.63H45.4199V83.63H42.4199V86.63ZM42.4199 91.868V94.868H45.4199V91.868H42.4199ZM15.4199 91.868H12.4199L12.4199 94.868H15.4199L15.4199 91.868ZM8.77792 92.138V95.138H11.7779V92.138H8.77792ZM2.99992 92.138H-8.01086e-05V95.138H2.99992V92.138ZM2.99992 86.36V83.36H-8.01086e-05V86.36H2.99992ZM8.77792 86.36H11.7779V83.36H8.77792V86.36ZM15.4199 86.63V89.63H42.4199V86.63V83.63H15.4199V86.63ZM42.4199 86.63H39.4199V91.868H42.4199H45.4199V86.63H42.4199ZM42.4199 91.868V88.868H15.4199V91.868L15.4199 94.868H42.4199V91.868ZM15.4199 91.868H18.4199V86.63H15.4199H12.4199V91.868H15.4199ZM8.77792 92.138L8.77792 89.138H2.99992V92.138V95.138H8.77792V92.138ZM2.99992 92.138H5.99992V86.36H2.99992H-8.01086e-05V92.138H2.99992ZM2.99992 86.36V89.36H8.77792V86.36V83.36H2.99992V86.36ZM8.77792 86.36H5.77792V92.138H8.77792H11.7779L11.7779 86.36H8.77792ZM20.1179 80.1588V83.1588H23.1179V80.1588H20.1179ZM15.4199 80.1588H12.4199V83.1588H15.4199V80.1588ZM15.4199 75.1908H18.4199V72.1908H15.4199V75.1908ZM10.8839 75.1908L8.28581 76.6908L9.15182 78.1908H10.8839V75.1908ZM7.85992 69.9529V66.9529H2.66391L5.26181 71.4528L7.85992 69.9529ZM15.4199 69.9529V72.9529H18.4199V69.9529H15.4199ZM15.4199 63.4728V60.4728H12.4199V63.4728H15.4199ZM20.1179 63.4728H23.1179V60.4728H20.1179V63.4728ZM20.1179 69.9529H17.1179V72.9529H20.1179V69.9529ZM37.7219 69.9529V72.9529H40.7219V69.9529H37.7219ZM37.7219 63.4728V60.4728H34.7219V63.4728H37.7219ZM42.4199 63.4728H45.4199V60.4728H42.4199V63.4728ZM42.4199 68.9268L45.0177 70.4273L45.4199 69.731V68.9268H42.4199ZM38.8019 75.1908V78.1908H40.5336L41.3997 76.6913L38.8019 75.1908ZM20.1179 75.1908V72.1908H17.1179V75.1908H20.1179ZM20.1179 80.1588V77.1588H15.4199V80.1588V83.1588H20.1179V80.1588ZM15.4199 80.1588H18.4199V75.1908H15.4199H12.4199V80.1588H15.4199ZM15.4199 75.1908V72.1908H10.8839V75.1908V78.1908H15.4199V75.1908ZM10.8839 75.1908L13.482 73.6909L10.458 68.4529L7.85992 69.9529L5.26181 71.4528L8.28581 76.6908L10.8839 75.1908ZM7.85992 69.9529V72.9529H15.4199V69.9529V66.9529H7.85992V69.9529ZM15.4199 69.9529H18.4199V63.4728H15.4199H12.4199V69.9529H15.4199ZM15.4199 63.4728V66.4728H20.1179V63.4728V60.4728H15.4199V63.4728ZM20.1179 63.4728H17.1179V69.9529H20.1179H23.1179V63.4728H20.1179ZM20.1179 69.9529V72.9529H37.7219V69.9529V66.9529H20.1179V69.9529ZM37.7219 69.9529H40.7219V63.4728H37.7219H34.7219V69.9529H37.7219ZM37.7219 63.4728V66.4728H42.4199V63.4728V60.4728H37.7219V63.4728ZM42.4199 63.4728H39.4199V68.9268H42.4199H45.4199V63.4728H42.4199ZM42.4199 68.9268L39.8221 67.4264L36.2041 73.6904L38.8019 75.1908L41.3997 76.6913L45.0177 70.4273L42.4199 68.9268ZM38.8019 75.1908V72.1908H20.1179V75.1908V78.1908H38.8019V75.1908ZM20.1179 75.1908H17.1179V80.1588H20.1179H23.1179V75.1908H20.1179ZM37.7219 34.5732V31.5732H34.7219V34.5732H37.7219ZM42.4199 34.5732H45.4199V31.5732H42.4199V34.5732ZM42.4199 49.6391L45.0177 51.1396L45.4199 50.4433V49.6391H42.4199ZM38.8019 55.9031V58.9031H40.5336L41.3997 57.4036L38.8019 55.9031ZM18.7679 55.9031L16.1701 57.4036L17.0362 58.9031H18.7679V55.9031ZM15.1499 49.6391H12.1499V50.4433L12.5521 51.1396L15.1499 49.6391ZM15.1499 40.8371L12.5521 39.3367L12.1499 40.033V40.8371H15.1499ZM18.7679 34.5732V31.5732H17.0362L16.1701 33.0727L18.7679 34.5732ZM30.7559 34.5732H33.7559V31.5732H30.7559V34.5732ZM30.7559 50.6651H27.7559V53.6651H30.7559V50.6651ZM37.7219 50.6651V53.6651H40.7219V50.6651H37.7219ZM19.8479 50.6651H16.8479V53.6651H19.8479V50.6651ZM26.0579 50.6651V53.6651H29.0579V50.6651H26.0579ZM26.0579 39.8111H29.0579V36.8111H26.0579V39.8111ZM19.8479 39.8111V36.8111H16.8479V39.8111H19.8479ZM37.7219 34.5732V37.5732H42.4199V34.5732V31.5732H37.7219V34.5732ZM42.4199 34.5732H39.4199V49.6391H42.4199H45.4199V34.5732H42.4199ZM42.4199 49.6391L39.8221 48.1387L36.2041 54.4027L38.8019 55.9031L41.3997 57.4036L45.0177 51.1396L42.4199 49.6391ZM38.8019 55.9031V52.9031H18.7679V55.9031V58.9031H38.8019V55.9031ZM18.7679 55.9031L21.3657 54.4027L17.7477 48.1387L15.1499 49.6391L12.5521 51.1396L16.1701 57.4036L18.7679 55.9031ZM15.1499 49.6391H18.1499V40.8371H15.1499H12.1499V49.6391H15.1499ZM15.1499 40.8371L17.7477 42.3376L21.3657 36.0736L18.7679 34.5732L16.1701 33.0727L12.5521 39.3367L15.1499 40.8371ZM18.7679 34.5732L18.7679 37.5732H30.7559V34.5732V31.5732H18.7679V34.5732ZM30.7559 34.5732H27.7559V50.6651H30.7559H33.7559V34.5732H30.7559ZM30.7559 50.6651V53.6651H37.7219V50.6651V47.6651H30.7559V50.6651ZM37.7219 50.6651H40.7219V34.5732H37.7219H34.7219V50.6651H37.7219ZM19.8479 50.6651V53.6651H26.0579V50.6651V47.6651H19.8479V50.6651ZM26.0579 50.6651H29.0579V39.8111H26.0579H23.0579V50.6651H26.0579ZM26.0579 39.8111V36.8111H19.8479V39.8111V42.8111H26.0579V39.8111ZM19.8479 39.8111H16.8479V50.6651H19.8479H22.8479V39.8111H19.8479ZM18.7679 3.00003V3.05176e-05H17.0362L16.1701 1.49957L18.7679 3.00003ZM42.4199 3.00003H45.4199V3.05176e-05H42.4199V3.00003ZM42.4199 8.23801V11.238H45.4199V8.23801H42.4199ZM19.8479 8.23801V5.23801H16.8479V8.23801H19.8479ZM19.8479 20.712H16.8479V23.712H19.8479V20.712ZM42.4199 20.712H45.4199V17.712H42.4199V20.712ZM42.4199 25.95V28.95H45.4199V25.95H42.4199ZM15.1499 25.95H12.1499V28.95H15.1499V25.95ZM15.1499 22.008L13.6344 19.419L12.1499 20.2879V22.008H15.1499ZM17.3639 20.712L18.8795 23.3011L21.4533 21.7944L19.9619 19.2118L17.3639 20.712ZM15.1499 16.878H12.1499V17.682L12.552 18.3782L15.1499 16.878ZM15.1499 9.26401L12.5521 7.76355L12.1499 8.4599V9.26401H15.1499ZM18.7679 3.00003V6.00003H42.4199V3.00003V3.05176e-05H18.7679V3.00003ZM42.4199 3.00003H39.4199L39.4199 8.23801H42.4199H45.4199L45.4199 3.00003H42.4199ZM42.4199 8.23801L42.4199 5.23801H19.8479V8.23801V11.238H42.4199V8.23801ZM19.8479 8.23801H16.8479V20.712H19.8479H22.8479V8.23801H19.8479ZM19.8479 20.712V23.712H42.4199V20.712V17.712H19.8479V20.712ZM42.4199 20.712H39.4199V25.95H42.4199H45.4199V20.712H42.4199ZM42.4199 25.95V22.95H15.1499V25.95V28.95H42.4199V25.95ZM15.1499 25.95H18.1499V22.008H15.1499H12.1499V25.95H15.1499ZM15.1499 22.008L16.6655 24.5971L18.8795 23.3011L17.3639 20.712L15.8484 18.123L13.6344 19.419L15.1499 22.008ZM17.3639 20.712L19.9619 19.2118L17.7479 15.3778L15.1499 16.878L12.552 18.3782L14.766 22.2122L17.3639 20.712ZM15.1499 16.878H18.1499V9.26401H15.1499H12.1499V16.878H15.1499ZM15.1499 9.26401L17.7477 10.7645L21.3657 4.50049L18.7679 3.00003L16.1701 1.49957L12.5521 7.76355L15.1499 9.26401Z" fill="#B5E93B" mask="url(#path-1-outside-1_3113_1889)"/>
</svg>
